<svg width="24" height="24" viewBox="0 0 24 24" fill="none" xmlns="http://www.w3.org/2000/svg">
  <path d="M18.8914 3C20.0032 3 20.9173 3.86579 20.9947 4.96726L21 5.11886V23L16.2274 19.2411L16.7726 21.144H5.10857C3.99682 21.144 3.08269 20.2782 3.00531 19.1767L3 19.0251V5.11886C3 3.99727 3.86579 3.08271 4.95825 3.00531L5.10857 3H18.8914ZM13.7583 7.54381L13.6998 7.54316L13.509 7.62852L13.365 7.79309L13.3285 7.84744L13.3082 7.90627L13.3069 7.9128L13.3059 7.91934L13.5531 7.92C15.3017 8.45486 16.1143 9.264 16.1143 9.264C15.0446 8.67771 13.9954 8.38971 13.0183 8.27657C12.2777 8.19429 11.568 8.21486 10.9406 8.29714C10.8789 8.29714 10.8274 8.30743 10.7657 8.31771C10.4057 8.34857 9.53143 8.48229 8.43086 8.96571C8.05029 9.14057 7.824 9.264 7.824 9.264C7.824 9.264 8.60509 8.52055 10.2933 7.98782L10.5291 7.91657L10.7793 7.9168C10.7794 7.87967 10.7713 7.84212 10.7541 7.807L10.7212 7.75653L10.6183 7.6331L10.4318 7.5432L10.27 7.54543C9.55082 7.57265 8.59858 7.83316 7.61375 8.50958L7.386 8.67314L7.31711 8.75237L7.19366 8.9934L7.15758 9.06825C7.13259 9.12066 7.10573 9.17807 7.07724 9.24033C6.90031 9.62695 6.72364 10.0657 6.55882 10.5487C6.1348 11.7913 5.86331 13.0992 5.81325 14.4266L5.80486 14.8697L5.83853 14.995L5.89351 15.0831C6.03699 15.2981 6.2876 15.5771 6.65954 15.8534C7.26026 16.2998 8.00751 16.5933 8.909 16.6674L9.18409 16.683L9.38511 16.5919L10.0774 15.7343L10.1104 15.6797L10.1169 15.655L9.88114 15.5794C8.57486 15.1886 8.08114 14.3657 8.08114 14.3657C8.08114 14.3657 8.184 14.4377 8.36914 14.5406C8.37943 14.5509 8.38971 14.5611 8.41029 14.5714C8.44114 14.592 8.472 14.6023 8.50286 14.6229C8.76 14.7669 9.01714 14.88 9.25371 14.9726C9.67543 15.1371 10.1794 15.3017 10.7657 15.4149C11.5371 15.5589 12.4423 15.6103 13.4297 15.4251C13.9131 15.3429 14.4069 15.1989 14.9211 14.9829C15.2811 14.8491 15.6823 14.6537 16.104 14.376C16.104 14.376 15.6399 15.1372 14.4382 15.5396L14.2423 15.6L14.0015 15.6681L14.019 15.7128L14.0461 15.7549L14.367 16.1543L14.7295 16.5936L14.9291 16.683L15.2041 16.6674C16.1058 16.5934 16.8546 16.2999 17.4581 15.8538C17.8316 15.5777 18.0839 15.2988 18.2287 15.0841L18.2842 14.9961L18.3186 14.8697L18.3102 14.4266C18.2601 13.0992 17.9886 11.7913 17.5646 10.5487C17.441 10.1865 17.3107 9.84909 17.1787 9.53995L17.0462 9.24033L16.8812 8.89542L16.8529 8.83981L16.8278 8.79209L16.8063 8.75237L16.7374 8.67314L16.475 8.48676C15.9465 8.13199 15.3981 7.88433 14.8487 7.72736C14.4175 7.60416 14.0445 7.55171 13.7583 7.54381ZM10.1383 11.6297C10.7246 11.6297 11.1977 12.144 11.1874 12.7714C11.1874 13.3989 10.7246 13.9131 10.1383 13.9131C9.56229 13.9131 9.08914 13.3989 9.08914 12.7714C9.08914 12.144 9.552 11.6297 10.1383 11.6297ZM13.8926 11.6297C14.4789 11.6297 14.9417 12.144 14.9417 12.7714C14.9417 13.3989 14.4789 13.9131 13.8926 13.9131C13.3166 13.9131 12.8434 13.3989 12.8434 12.7714C12.8434 12.144 13.3063 11.6297 13.8926 11.6297Z" fill="#BFB6D2" />
</svg>
  