<svg width="24" height="24" viewBox="0 0 24 24" fill="none" xmlns="http://www.w3.org/2000/svg">
  <path fill-rule="evenodd" clip-rule="evenodd" d="M22 12C22 17.5228 17.5228 22 12 22C6.47715 22 2 17.5228 2 12C2 6.47715 6.47715 2 12 2C17.5228 2 22 6.47715 22 12ZM17.2148 10.5442C18.0144 10.5442 18.6706 11.1886 18.6706 12C18.6706 12.5966 18.3127 13.1097 17.8115 13.3366C17.8354 13.4796 17.8474 13.6349 17.8474 13.7781C17.8474 16.0334 15.234 17.8474 12.012 17.8474C8.79004 17.8474 6.17665 16.0214 6.17665 13.7781C6.17665 13.6229 6.18844 13.4796 6.21247 13.3366C5.7111 13.1097 5.3532 12.6086 5.3532 12.012C5.3532 11.2124 5.99759 10.5562 6.80904 10.5562C7.18679 10.5556 7.55017 10.701 7.82334 10.9619C8.83764 10.2339 10.2339 9.76853 11.7851 9.72071L12.5252 6.23627C12.537 6.16465 12.5728 6.10503 12.6324 6.06922C12.6802 6.03341 12.7518 6.0214 12.8235 6.03341L15.2458 6.54657C15.4128 6.20046 15.7709 5.96179 16.1767 5.96179C16.7494 5.96179 17.2148 6.42712 17.2148 6.99989C17.2148 7.57288 16.7494 8.03821 16.1767 8.03821C15.6157 8.03821 15.1624 7.59668 15.1383 7.04771L12.9665 6.58238L12.2983 9.70892C13.8257 9.76853 15.1982 10.2339 16.2005 10.9499C16.4629 10.6992 16.821 10.5442 17.2148 10.5442ZM9.70892 12C9.13593 12 8.67059 12.4653 8.67059 13.0381C8.67059 13.6109 9.13593 14.0882 9.70892 14.0764C10.2817 14.0764 10.747 13.6109 10.747 13.0381C10.747 12.4653 10.2817 12 9.70892 12ZM12.012 16.5586C12.4057 16.5586 13.7661 16.5108 14.4821 15.7947C14.5776 15.6873 14.5776 15.5203 14.4821 15.4128C14.3747 15.3056 14.2077 15.3056 14.1002 15.4128C13.6587 15.8664 12.6922 16.0214 12.012 16.0214C11.3318 16.0214 10.3771 15.8664 9.92357 15.4128C9.81613 15.3056 9.64908 15.3056 9.54165 15.4128C9.43443 15.5203 9.43443 15.6873 9.54165 15.7947C10.2459 16.4987 11.6063 16.5586 12.012 16.5586ZM13.253 13.0501C13.253 13.6229 13.7183 14.0882 14.2911 14.0882C14.8641 14.0882 15.3294 13.6109 15.3294 13.0501C15.3294 12.4773 14.8641 12.012 14.2911 12.012C13.7183 12.012 13.253 12.4773 13.253 13.0501Z" fill="#BFB6D2" />
</svg>
  