<svg width="24" height="24" viewBox="0 0 24 24" fill="none" xmlns="http://www.w3.org/2000/svg">
  <path d="M11.9999 3C16.9705 3 20.9999 7.02944 20.9999 12C20.9999 16.9706 16.9705 21 11.9999 21C7.02938 21 2.99994 16.9706 2.99994 12C2.99994 7.02944 7.02938 3 11.9999 3ZM14.3534 8.0275C13.0874 8.0275 12.0594 9.05546 12.0594 10.3215L12.0663 10.5044L12.0869 10.679L12.2492 10.6917C10.5231 10.6056 8.94367 9.79069 7.86683 8.46953L7.74994 8.33L7.66169 8.48599C7.46089 8.83371 7.35244 9.22976 7.35244 9.6375L7.35928 9.81551C7.40015 10.3455 7.62228 10.8362 7.97778 11.2118L8.02494 11.258L7.87944 11.2181C7.75731 11.1779 7.6386 11.1258 7.5245 11.0627L7.33994 10.96L7.33894 11.172L7.34531 11.3711C7.40445 12.1669 7.87066 12.8579 8.55025 13.2226L8.66194 13.277L8.63394 13.279C8.50324 13.279 8.37644 13.2664 8.24895 13.2409L8.03994 13.2L8.10531 13.4013L8.16312 13.5622C8.45935 14.2987 9.11995 14.8305 9.90494 14.963L9.78775 15.0406C9.1246 15.4505 8.35628 15.673 7.55394 15.673C7.37465 15.673 7.21076 15.6634 7.05275 15.6426L6.50923 15.5711L6.96802 15.8711C7.96082 16.5204 9.13162 16.8725 10.3529 16.8725C13.9688 16.8725 16.5358 14.0511 16.6481 10.7961L16.6511 10.4061L16.6479 10.354L16.8086 10.2319C17.1553 9.94822 17.4604 9.61278 17.7108 9.23908L17.9508 8.8809L17.5564 9.05516L17.3249 9.14933C17.1686 9.20758 17.0084 9.25674 16.8429 9.296L16.862 9.27959C17.1232 9.02149 17.3204 8.70322 17.4335 8.34794L17.5331 8.03547L17.2508 8.20241L16.9993 8.33991C16.7433 8.46886 16.4742 8.57197 16.1952 8.64757L15.9739 8.698L15.8947 8.61917C15.4781 8.24146 14.9341 8.0275 14.3534 8.0275Z" fill="#BFB6D2" />
</svg>
  