<svg width="24" height="24" viewBox="0 0 24 24" fill="none" xmlns="http://www.w3.org/2000/svg">
  <path d="M20.8207 7.80505C20.8207 7.80505 20.6449 6.53069 20.1035 5.97112C19.418 5.23466 18.6516 5.23105 18.3 5.18773C15.7828 5 12.0035 5 12.0035 5H11.9965C11.9965 5 8.21719 5 5.7 5.18773C5.34844 5.23105 4.58203 5.23466 3.89648 5.97112C3.35508 6.53069 3.18281 7.80505 3.18281 7.80505C3.18281 7.80505 3 9.30325 3 10.7978V12.1986C3 13.6931 3.1793 15.1913 3.1793 15.1913C3.1793 15.1913 3.35508 16.4657 3.89297 17.0253C4.57852 17.7617 5.47852 17.7365 5.8793 17.8159C7.3207 17.9567 12 18 12 18C12 18 15.7828 17.9928 18.3 17.8087C18.6516 17.7653 19.418 17.7617 20.1035 17.0253C20.6449 16.4657 20.8207 15.1913 20.8207 15.1913C20.8207 15.1913 21 13.6967 21 12.1986V10.7978C21 9.30325 20.8207 7.80505 20.8207 7.80505ZM10.1402 13.8989V8.70397L15.0023 11.3105L10.1402 13.8989Z" fill="#BFB6D2" />
</svg>
  